# xmcd CD database file
#
# Track frame offsets:
#	150
#	4852
#	23547
#	44760
#	61750
#	81735
#	104380
#	124382
#	140532
#	161857
#	183042
#	201787
#	236700
#
# Disc length: 4440 seconds
#
# Revision: 1
# Processed by: cddbd v1.5.2PL0 Copyright (c) Steve Scherf et al.
# Submitted via: CDex 1.70beta3
#
DISCID=b511560d
DTITLE=下川みくに - 392～mikuni shimokawa BEST SELECTION～
DYEAR=2002
DGENRE=JPop
TTITLE0=Party -is not over- (overture)
TTITLE1=POPCORN
TTITLE2=カナリア
TTITLE3=Pavement
TTITLE4=TRUE -album version-
TTITLE5=たった、ひとつの -album mix-
TTITLE6=枯れない花
TTITLE7=tomorrow
TTITLE8=Alone
TTITLE9=BELIEVER～旅立ちの歌～(studio live version)
TTITLE10=はじまり (カバーバージョン)
TTITLE11=If～もしも願いがかなうなら～(CMJK remix)
TTITLE12=Player
EXTD=YEAR: 2002
EXTT0=
EXTT1=
EXTT2=
EXTT3=
EXTT4=
EXTT5=
EXTT6=
EXTT7=
EXTT8=
EXTT9=
EXTT10=
EXTT11=
EXTT12=
PLAYORDER=
